<svg width="22" height="22" viewBox="0 0 22 22" fill="none" xmlns="http://www.w3.org/2000/svg">
<path d="M16.3607 6.38496C16.4852 5.87168 17.2152 5.87168 17.3396 6.38496L17.6821 7.79729C17.7265 7.98055 17.8696 8.12363 18.0529 8.16807L19.4652 8.51054C19.9785 8.635 19.9785 9.365 19.4652 9.48947L18.0529 9.83193C17.8696 9.87637 17.7265 10.0195 17.6821 10.2027L17.3396 11.615C17.2152 12.1283 16.4852 12.1283 16.3607 11.615L16.0182 10.2027C15.9738 10.0195 15.8307 9.87637 15.6475 9.83193L14.2351 9.48947C14.203 9.48169 14.173 9.47154 14.1449 9.45933C13.7239 9.27612 13.7539 8.62722 14.2351 8.51054L15.6475 8.16807C15.8307 8.12363 15.9738 7.98055 16.0182 7.79729L16.3607 6.38496Z" fill="#272725"/>
<path fill-rule="evenodd" clip-rule="evenodd" d="M10.1333 14.0283C8.95197 13.8067 7.74836 13.8067 6.56703 14.0283C5.97975 14.1385 5.50323 14.7508 5.50323 15.5282V15.7946C5.50323 16.0222 5.65147 16.1379 5.76058 16.1379H10.9398C11.0489 16.1379 11.1971 16.0222 11.1971 15.7946V15.5282C11.1971 14.7508 10.7206 14.1385 10.1333 14.0283ZM6.2954 12.1916C7.65658 11.9361 9.04375 11.9361 10.4049 12.1916C11.8392 12.4607 12.8502 13.8986 12.8502 15.5282V15.7946C12.8502 16.9746 12.0279 18 10.9398 18H5.76058C4.67246 18 3.85017 16.9746 3.85017 15.7946V15.5282C3.85017 13.8986 4.86113 12.4607 6.2954 12.1916Z" fill="#272725"/>
<path fill-rule="evenodd" clip-rule="evenodd" d="M6.12737 0.829663C6.22144 1.28958 5.92487 1.73868 5.46495 1.83276C4.3757 2.05556 3.5495 2.48886 2.94426 3.0941C2.33903 3.69933 1.90573 4.52553 1.68293 5.61478C1.58885 6.0747 1.13975 6.37128 0.679831 6.2772C0.219912 6.18313 -0.0766643 5.73403 0.0174101 5.27411C0.294609 3.91891 0.861309 2.77289 1.74218 1.89201C2.62306 1.01114 3.76908 0.444441 5.12428 0.167242C5.5842 0.0731678 6.0333 0.369744 6.12737 0.829663ZM21.0134 14.6103C21.4741 14.7004 21.7745 15.1469 21.6844 15.6077C21.1509 18.3342 19.4888 21.2553 15.9899 21.8384C15.5269 21.9156 15.0889 21.6028 15.0117 21.1397C14.9346 20.6767 15.2474 20.2387 15.7104 20.1616C18.2115 19.7447 19.5494 17.6658 20.016 15.2812C20.1061 14.8205 20.5527 14.5201 21.0134 14.6103ZM0.850168 14.5944C1.31961 14.5944 1.70017 14.975 1.70017 15.4444C1.70017 18.0649 3.38461 19.7417 5.46495 20.1672C5.92487 20.2613 6.22144 20.7104 6.12737 21.1703C6.0333 21.6303 5.5842 21.9268 5.12428 21.8328C2.31572 21.2583 0.000167832 18.9351 0.000167832 15.4444C0.000167832 14.975 0.380726 14.5944 0.850168 14.5944Z" fill="#272725"/>
<path fill-rule="evenodd" clip-rule="evenodd" d="M8.35017 9.2C9.28905 9.2 10.0502 8.43888 10.0502 7.5C10.0502 6.56112 9.28905 5.8 8.35017 5.8C7.41128 5.8 6.65017 6.56112 6.65017 7.5C6.65017 8.43888 7.41128 9.2 8.35017 9.2ZM8.35017 11C10.2832 11 11.8502 9.433 11.8502 7.5C11.8502 5.567 10.2832 4 8.35017 4C6.41717 4 4.85017 5.567 4.85017 7.5C4.85017 9.433 6.41717 11 8.35017 11Z" fill="#272725"/>
<path d="M15.8502 1C15.8502 1.55228 15.4025 2 14.8502 2C14.2979 2 13.8502 1.55228 13.8502 1C13.8502 0.447715 14.2979 0 14.8502 0C15.4025 0 15.8502 0.447715 15.8502 1Z" fill="#272725"/>
<path d="M20.8502 3C20.8502 3.55228 20.4025 4 19.8502 4C19.2979 4 18.8502 3.55228 18.8502 3C18.8502 2.44772 19.2979 2 19.8502 2C20.4025 2 20.8502 2.44772 20.8502 3Z" fill="#272725"/>
<path d="M17.8502 15C17.8502 15.5523 17.4025 16 16.8502 16C16.2979 16 15.8502 15.5523 15.8502 15C15.8502 14.4477 16.2979 14 16.8502 14C17.4025 14 17.8502 14.4477 17.8502 15Z" fill="#272725"/>
</svg>
