<svg width="20" height="20" viewBox="0 0 20 20" fill="none" xmlns="http://www.w3.org/2000/svg">
<path d="M0.418724 13.596C0.58494 12.496 1.67538 11.7808 2.76052 12.0599L5.3865 12.7357C5.86468 12.8587 6.15204 13.3432 6.0281 13.8177C5.90411 14.292 5.41631 14.5772 4.93826 14.4544L3.40603 14.0599C4.64105 15.881 6.97681 18.5018 10.9959 18.1995C13.0194 18.0473 14.7751 17.1602 16.072 16.098C16.719 15.5681 17.2379 15.0051 17.6092 14.4905C17.9909 13.9613 18.1778 13.537 18.2283 13.2855C18.3248 12.8049 18.7957 12.4926 19.2801 12.5882C19.7645 12.6839 20.0795 13.1514 19.9832 13.6321C19.8632 14.2302 19.5202 14.8916 19.0642 15.5238C18.5976 16.1706 17.97 16.8452 17.2107 17.4671C15.6951 18.7084 13.6003 19.7842 11.1316 19.97C6.21742 20.3397 3.37849 17.1629 1.99294 15.1517L1.77908 16.5677C1.70588 17.0523 1.25088 17.3862 0.762474 17.3138C0.274021 17.2412 -0.0625124 16.7897 0.0105207 16.305L0.418724 13.596ZM13.9998 12.9993C14.552 12.9993 14.9997 13.4472 14.9998 13.9993C14.9998 14.5516 14.5521 14.9993 13.9998 14.9993C13.4476 14.9992 12.9998 14.5515 12.9998 13.9993C12.9999 13.4473 13.4477 12.9995 13.9998 12.9993ZM9.51052 7.3841C9.63522 6.87128 10.3654 6.87123 10.49 7.3841L10.8318 8.79719C10.8763 8.98031 11.0197 9.12289 11.2029 9.1673L12.615 9.51008C13.1283 9.63454 13.1283 10.3641 12.615 10.4886L11.2029 10.8314C11.0196 10.8758 10.8762 11.0192 10.8318 11.2025L10.49 12.6146C10.3655 13.1279 9.63498 13.1279 9.51052 12.6146L9.16775 11.2025C9.12333 11.0193 8.98079 10.8759 8.79763 10.8314L7.38552 10.4886C7.35345 10.4808 7.32276 10.4715 7.2947 10.4593C6.87365 10.2761 6.90432 9.62676 7.38552 9.51008L8.79763 9.1673C8.98061 9.12282 9.12322 8.98014 9.16775 8.79719L9.51052 7.3841ZM8.86892 0.0296096C13.7821 -0.339982 16.6207 2.83473 18.0066 4.84602L18.2215 3.43098C18.2949 2.94651 18.7497 2.61232 19.2381 2.68488C19.7266 2.7575 20.0632 3.20988 19.99 3.69465L19.5808 6.40266C19.4148 7.50284 18.3252 8.21791 17.24 7.93879L14.6131 7.26301C14.1352 7.13995 13.8479 6.6562 13.9715 6.18195C14.0954 5.70746 14.5841 5.42225 15.0623 5.54523L16.5926 5.93879C15.3574 4.11772 13.0227 1.4971 9.00466 1.79914C6.98131 1.95135 5.22542 2.83857 3.92849 3.9007C3.28153 4.43059 2.76163 4.99358 2.3904 5.50813C2.00873 6.03717 1.82276 6.46165 1.77224 6.7132C1.67584 7.19385 1.20485 7.50595 0.720482 7.41047C0.236001 7.31479 -0.0790657 6.84727 0.0173566 6.36652C0.137385 5.76848 0.480321 5.10697 0.936302 4.47492C1.40292 3.82818 2.03058 3.15439 2.78982 2.53254C4.30545 1.29117 6.40012 0.215346 8.86892 0.0296096ZM5.99978 4.99934C6.55199 4.99934 6.99966 5.44715 6.99978 5.99934C6.99978 6.55162 6.55206 6.99934 5.99978 6.99934C5.44765 6.99916 4.99978 6.55151 4.99978 5.99934C4.99989 5.44726 5.44772 4.99951 5.99978 4.99934Z" fill="#272725"/>
</svg>
