<svg width="345" height="61" viewBox="0 0 345 61" fill="none" xmlns="http://www.w3.org/2000/svg">
<path fill-rule="evenodd" clip-rule="evenodd" d="M99.1155 55.4648C44.1773 56.2522 43.845 56.0346 42.1948 54.4183C41.3047 53.5465 33.3226 52.4222 24.457 51.9198C13.8385 51.3181 7.4436 50.3066 5.71765 48.9556C4.27664 47.8277 2.40063 46.9048 1.54878 46.9048C0.696929 46.9048 0 45.645 0 44.1052C0 41.8737 1.07897 41.3057 5.31774 41.3057C8.24244 41.3057 10.6354 40.6758 10.6354 39.9059C10.6354 39.136 9.22181 38.5061 7.49409 38.5061C2.95308 38.5061 1.64169 35.738 6.08924 35.5407C8.14459 35.4496 10.3724 35.4496 11.04 35.5407C11.7076 35.6319 12.2539 35.0766 12.2539 34.3067C12.2539 33.5368 10.4331 32.9069 8.20778 32.9069C5.98244 32.9069 4.16169 32.277 4.16169 31.5071C4.16169 30.7372 4.92997 30.1073 5.86891 30.1073C6.76999 30.1073 10.6627 28.8645 14.6689 27.3065C12.6506 27.0366 11.4364 26.6812 11.4364 26.2933C11.4364 25.5234 14.1674 24.8849 17.5055 24.8744C19.334 24.8686 21.5267 24.7315 23.5018 24.5203C25.757 23.9807 28.2321 23.4966 31.0034 23.0614L31.6667 22.9012L26.8115 21.9633C24.0336 21.4267 26.3644 21.0195 33.4391 20.789C35.1269 20.6569 35.8184 19.9021 35.2994 18.7323C35.2085 18.5274 35.1622 18.3268 35.1584 18.1325C26.0613 18.3199 17.2142 18.6965 13.0548 19.2206C4.3362 20.3192 1.851 20.1192 3.75544 18.472C5.38297 17.0643 16.8682 14.8777 21.8315 15.0306C24.4334 15.1108 27.0951 14.4305 27.7465 13.519C28.3978 12.6075 31.3457 11.9211 34.2972 11.9937C35.025 12.0116 35.7657 11.9968 36.4825 11.9548C35.4291 11.0372 36.2727 10.6586 39.4813 9.39414C40.0972 9.15144 40.6848 8.86507 41.2191 8.55566C38.3584 8.53046 34.4983 8.5671 30.0483 8.67389C4.63776 9.28366 13.0045 7.22535 40.9787 5.9849C41.9567 5.94153 42.935 5.89666 43.9083 5.8506C43.9133 5.81189 43.9158 5.77387 43.9158 5.7366C43.9158 4.6861 46.2487 3.42307 49.1 2.92985C53.5316 2.16326 53.8252 1.87784 51.123 0.963538C49.3844 0.375289 70.1748 -0.0556726 97.3239 0.00584828C124.473 0.0673516 143.409 0.558394 139.403 1.09701C133.181 1.93366 132.827 2.13947 136.975 2.50978C138.542 2.6496 148.583 2.82823 162.815 2.99056C177.047 2.82823 187.088 2.6496 188.654 2.50978C192.802 2.13947 192.449 1.93366 186.227 1.09701C182.221 0.558394 201.157 0.0673516 228.306 0.00584828C255.455 -0.0556726 276.245 0.375289 274.507 0.963538C271.805 1.87784 272.098 2.16326 276.53 2.92985C279.381 3.42307 281.714 4.6861 281.714 5.7366C281.714 5.77387 281.717 5.81189 281.721 5.8506C282.695 5.89666 283.673 5.94153 284.651 5.9849C312.625 7.22535 320.992 9.28366 295.582 8.67389C291.132 8.5671 287.271 8.53046 284.411 8.55566C284.945 8.86507 285.533 9.15144 286.149 9.39414C289.357 10.6586 290.201 11.0372 289.147 11.9548C289.864 11.9968 290.605 12.0116 291.333 11.9937C294.284 11.9211 297.232 12.6075 297.883 13.519C298.535 14.4305 301.196 15.1108 303.798 15.0306C307.203 14.9257 313.676 15.9217 317.932 17.0119C318.488 17.1235 318.917 17.2411 319.219 17.3652C320.522 17.7503 321.483 18.1336 321.874 18.472C321.97 18.5543 322.054 18.633 322.127 18.7081C323.386 19.0483 324.889 19.2632 326.279 19.2632C330.203 19.2632 330.856 19.7358 330.153 22.0627C329.507 24.1975 330.103 24.8623 332.661 24.8623C334.506 24.8623 335.537 25.2768 334.951 25.7834C334.783 25.9291 334.693 26.1401 334.676 26.3924C341.054 26.7695 345.214 27.2753 344.82 27.8465C344.379 28.4856 340.784 29.4288 336.665 30.0069C336.702 30.2633 336.537 30.3791 336.155 30.2962C334.759 29.9927 330.589 31.5138 327.976 32.9647C327.876 33.5288 327.027 34.2474 325.771 34.907C325.858 35.4749 327.097 35.6153 328.599 35.2113C330.721 34.6405 330.62 34.8836 328.194 36.181C327.659 36.4669 327.101 36.8134 326.563 37.186C328.265 37.1352 330.37 37.0509 332.914 36.9363C341.365 36.5556 346.604 36.5971 344.557 37.0284C341.797 37.6098 341.276 38.2593 342.544 39.5401C343.857 40.8671 342.111 41.6476 335.01 42.9062C325.019 44.6771 318.684 46.5878 317.823 47.9815C319.623 48.4989 320.911 49.2212 320.911 49.8991C320.911 50.025 320.362 50.1383 319.367 50.2356C319.262 51.9294 314.003 53.8764 306.098 54.8594C301.002 55.4932 297.927 56.0991 299.264 56.2056C301.255 56.3644 301.199 56.659 298.955 57.8306C297.447 58.6176 291.809 59.0029 286.426 58.6871C280.581 58.3439 276.647 58.663 276.661 59.479C276.691 61.1742 250.717 61.5375 229.733 60.1357C199.114 58.0903 191.472 57.8314 196.532 59.0114C200.543 59.9468 199.736 60.1425 191.977 60.1158C186.791 60.0978 182.219 59.6388 181.817 59.0958C181.469 58.6249 180.007 58.2305 177.317 57.9069C173.538 58.3788 171.056 58.8201 170.698 59.13C170.236 59.5298 168.037 59.8574 165.811 59.8574C160.717 59.8574 162.056 58.5651 168.139 57.6111C168.712 57.5212 169.272 57.4256 169.8 57.3289C161.732 56.92 149.403 56.7294 132.135 56.7251C112.869 56.7201 102.323 56.3224 99.1155 55.4648ZM313.685 25.7323C318.549 25.7857 323.377 25.9001 327.728 26.0637C327.973 25.0169 327.276 24.2259 326.171 24.3024C325.058 24.3794 319.96 24.5562 314.842 24.6948C312.609 24.7554 310.933 24.8273 309.742 24.9303C311.509 25.0493 312.957 25.348 313.685 25.7323ZM30.8576 14.4776C30.8576 14.1382 31.586 13.4711 32.4762 12.9952C33.3663 12.5194 34.0946 12.7972 34.0946 13.6125C34.0946 14.4278 33.3663 15.0949 32.4762 15.0949C31.586 15.0949 30.8576 14.8172 30.8576 14.4776ZM267.958 2.4968C267.407 1.72692 267.729 1.09701 268.671 1.09701C269.614 1.09701 270.385 1.72692 270.385 2.4968C270.385 3.26669 270.064 3.8966 269.672 3.8966C269.279 3.8966 268.508 3.26669 267.958 2.4968ZM221.428 1.45387C229.662 1.19981 243.135 1.19981 251.369 1.45387C259.602 1.70793 252.866 1.91578 236.398 1.91578C219.931 1.91578 213.194 1.70791 221.428 1.45387ZM294.772 14.4776C294.772 14.1382 294.044 13.4711 293.154 12.9952C292.264 12.5194 291.535 12.7972 291.535 13.6125C291.535 14.4278 292.264 15.0949 293.154 15.0949C294.044 15.0949 294.772 14.8172 294.772 14.4776ZM57.6722 2.4968C58.2224 1.72692 57.9013 1.09701 56.9585 1.09701C56.0159 1.09701 55.2446 1.72692 55.2446 2.4968C55.2446 3.26669 55.5657 3.8966 55.9583 3.8966C56.3508 3.8966 57.1221 3.26669 57.6722 2.4968ZM104.202 1.45387C95.9683 1.19981 82.4949 1.19981 74.2611 1.45387C66.0274 1.70793 72.7641 1.91578 89.2316 1.91578C105.699 1.91578 112.436 1.70791 104.202 1.45387ZM56.356 52.9158C54.3532 52.5822 51.0759 52.5822 49.0731 52.9158C47.0703 53.2495 48.7089 53.5225 52.7145 53.5225C56.7201 53.5225 58.3588 53.2495 56.356 52.9158Z" fill="#A41C1C"/>
</svg>
